<?xml version="1.0" encoding="UTF-8" standalone="no"?>
<svg
   width="512"
   height="512"
   viewBox="0 0 512 512"
   fill="none"
   version="1.1"
   id="svg8"
   xmlns="http://www.w3.org/2000/svg"
   xmlns:svg="http://www.w3.org/2000/svg">
  <defs
     id="defs8" />
  <circle
     cx="256"
     cy="256"
     r="220"
     fill="white"
     id="circle1" />
  <path
     d="M169.029 295.577C169.029 312.922 154.86 327.091 137.515 327.091C120.169 327.091 106 312.922 106 295.577C106 278.231 120.169 264.062 137.515 264.062H169.029V295.577Z"
     fill="#E01E5A"
     id="path1" />
  <path
     d="M184.909 295.577C184.909 278.231 199.078 264.062 216.423 264.062C233.769 264.062 247.938 278.231 247.938 295.577V374.485C247.938 391.831 233.769 406 216.423 406C199.078 406 184.909 391.831 184.909 374.485V295.577Z"
     fill="#E01E5A"
     id="path2" />
  <path
     d="M216.423 169.029C199.078 169.029 184.909 154.86 184.909 137.515C184.909 120.169 199.078 106 216.423 106C233.769 106 247.938 120.169 247.938 137.515V169.029H216.423Z"
     fill="#36C5F0"
     id="path3" />
  <path
     d="M216.423 184.909C233.769 184.909 247.938 199.078 247.938 216.423C247.938 233.769 233.769 247.938 216.423 247.938H137.515C120.169 247.938 106 233.769 106 216.423C106 199.078 120.169 184.909 137.515 184.909H216.423Z"
     fill="#36C5F0"
     id="path4" />
  <path
     d="M342.971 216.423C342.971 199.078 357.14 184.909 374.485 184.909C391.831 184.909 406 199.078 406 216.423C406 233.769 391.831 247.938 374.485 247.938H342.971V216.423Z"
     fill="#2EB67D"
     id="path5" />
  <path
     d="M327.091 216.423C327.091 233.769 312.922 247.938 295.577 247.938C278.231 247.938 264.062 233.769 264.062 216.423V137.515C264.062 120.169 278.231 106 295.577 106C312.922 106 327.091 120.169 327.091 137.515V216.423Z"
     fill="#2EB67D"
     id="path6" />
  <path
     d="M295.577 342.971C312.922 342.971 327.091 357.14 327.091 374.485C327.091 391.831 312.922 406 295.577 406C278.231 406 264.062 391.831 264.062 374.485V342.971H295.577Z"
     fill="#ECB22E"
     id="path7" />
  <path
     d="M295.577 327.091C278.231 327.091 264.062 312.922 264.062 295.577C264.062 278.231 278.231 264.062 295.577 264.062H374.485C391.831 264.062 406 278.231 406 295.577C406 312.922 391.831 327.091 374.485 327.091H295.577Z"
     fill="#ECB22E"
     id="path8" />
  <text
     xml:space="preserve"
     style="font-style:normal;font-variant:normal;font-weight:bold;font-stretch:normal;font-size:192px;line-height:1.25;font-family:Sans;-inkscape-font-specification:'Sans Bold';fill:#000000;fill-opacity:1;stroke:none"
     x="75.424004"
     y="324.54401"
     id="text8"><tspan
       id="tspan8"
       x="75.424004"
       y="324.54401">SVG</tspan></text>
</svg>
